<?xml version="1.0" standalone="no"?>
<!DOCTYPE svg PUBLIC "-//W3C//DTD SVG 20010904//EN"
 "http://www.w3.org/TR/2001/REC-SVG-20010904/DTD/svg10.dtd">
<svg version="1.0" xmlns="http://www.w3.org/2000/svg"
 width="594.000000pt" height="594.000000pt" viewBox="0 0 594.000000 594.000000"
 preserveAspectRatio="xMidYMid meet">
<metadata>
Created by potrace 1.14, written by Peter Selinger 2001-2017
</metadata>
<g transform="translate(0.000000,594.000000) scale(0.100000,-0.100000)"
fill="#000000" stroke="none">
<path d="M2523 5774 c-29 -6 -53 -9 -53 -6 0 3 -9 -3 -20 -13 -17 -16 -20 -31
-20 -111 0 -90 -5 -110 -26 -96 -11 8 -32 96 -37 155 -4 42 -19 58 -51 51 -12
-3 -45 -5 -73 -6 -29 -1 -53 -4 -53 -8 0 -3 -10 -7 -22 -8 -13 -1 -36 -3 -53
-5 -43 -4 -54 -14 -51 -45 2 -15 5 -27 6 -27 2 0 4 -11 5 -25 1 -14 5 -32 9
-41 4 -9 8 -27 10 -41 1 -13 5 -29 9 -35 6 -9 -22 -30 -28 -21 -8 12 -29 75
-27 81 1 4 -2 7 -8 7 -6 0 -9 3 -9 8 1 4 0 10 -1 15 -1 4 -3 10 -4 15 -1 4 -8
18 -15 30 -7 13 -10 26 -7 29 14 14 -36 34 -67 27 -17 -4 -43 -8 -57 -10 -13
-1 -26 -8 -28 -13 -2 -6 -16 -11 -30 -11 -15 0 -38 -6 -52 -13 -23 -11 -25
-19 -26 -80 -1 -37 3 -70 8 -73 4 -3 6 -9 4 -13 -3 -4 2 -32 10 -62 9 -30 17
-61 18 -69 2 -8 13 -37 25 -63 11 -27 21 -52 21 -57 0 -4 7 -13 15 -20 8 -7
12 -16 9 -21 -3 -5 4 -9 15 -9 14 0 21 -6 21 -20 0 -11 6 -20 13 -20 8 0 8 -3
2 -8 -12 -8 -12 -19 -1 -44 5 -10 6 -25 2 -33 -3 -8 -2 -15 3 -15 9 0 42 -147
42 -192 0 -10 4 -18 8 -18 4 0 7 -10 8 -22 1 -13 4 -34 8 -48 19 -71 17 -79
-23 -86 -20 -4 -41 -9 -47 -12 -5 -3 -18 -7 -30 -9 -25 -3 -59 -11 -62 -13 -2
-2 -6 -3 -10 -4 -5 -1 -12 -4 -18 -7 -33 -18 -51 -2 -97 89 -26 50 -44 92 -42
92 3 0 -5 10 -16 22 -11 12 -18 28 -16 35 3 7 2 13 -2 13 -4 0 -28 41 -52 90
-42 85 -46 90 -72 86 -27 -4 -30 0 -27 32 0 4 7 6 15 4 8 -2 14 2 14 8 0 5 3
9 8 9 4 -1 15 -1 25 0 19 1 19 0 2 76 -19 86 -57 189 -78 213 -9 10 -14 22
-10 25 3 4 2 7 -4 7 -6 0 -14 11 -17 25 -4 14 -11 25 -16 25 -6 0 -10 6 -10
13 0 6 -8 22 -18 34 -16 21 -19 22 -44 8 -16 -7 -28 -12 -28 -9 0 2 -18 -5
-40 -16 -22 -11 -40 -18 -40 -14 0 4 -7 1 -15 -6 -8 -7 -15 -9 -15 -6 0 4 -7
0 -16 -8 -8 -9 -19 -14 -24 -11 -4 3 -13 -2 -20 -10 -9 -11 -10 -18 -1 -28 6
-8 8 -17 5 -20 -4 -3 -3 -14 1 -24 27 -63 23 -135 -5 -107 -6 6 -13 18 -14 25
-2 8 -10 30 -19 50 -9 20 -17 42 -19 50 -2 7 -8 19 -15 26 -11 12 -20 12 -60
-4 -10 -3 -22 -7 -28 -8 -5 0 -17 -4 -25 -7 -23 -9 -54 -19 -60 -19 -3 0 -13
-8 -22 -16 -10 -9 -18 -13 -18 -9 0 3 -18 -3 -40 -14 l-40 -20 19 -33 c47 -82
66 -112 74 -118 11 -8 0 -29 -15 -29 -15 0 -58 36 -51 44 3 3 -1 6 -10 6 -9 0
-17 7 -17 16 0 8 -3 13 -7 11 -10 -5 -43 29 -36 36 2 3 -4 10 -15 16 -12 6
-22 7 -24 2 -2 -6 -16 -13 -33 -16 -38 -8 -44 -9 -78 -23 -16 -7 -32 -12 -37
-12 -4 0 -10 -7 -14 -15 -3 -8 -12 -12 -20 -9 -13 5 -13 -3 4 -50 10 -31 23
-62 27 -69 4 -6 9 -21 10 -32 2 -10 8 -22 15 -26 6 -4 8 -11 4 -17 -3 -6 1
-15 9 -20 9 -5 17 -15 19 -23 4 -26 28 -62 73 -110 39 -42 49 -47 74 -42 31 6
37 -5 17 -25 -8 -8 -9 -15 -3 -20 6 -4 16 -20 24 -37 34 -74 46 -95 54 -95 4
0 5 -5 1 -11 -3 -6 -3 -14 2 -18 5 -3 29 -46 54 -96 25 -49 47 -92 50 -95 3
-3 6 -12 8 -20 2 -8 10 -23 19 -32 8 -9 12 -21 9 -27 -3 -5 -1 -11 4 -13 7 -2
11 -180 10 -550 0 -351 4 -549 10 -553 7 -4 6 -13 -1 -27 -8 -16 -8 -19 1 -13
9 6 9 3 2 -12 -6 -11 -7 -25 -2 -33 4 -7 5 -23 1 -34 -8 -25 -7 -69 3 -85 4
-6 2 -11 -5 -11 -8 0 -9 -3 0 -13 6 -8 8 -16 5 -19 -7 -8 -9 -101 -2 -113 3
-6 4 -19 2 -30 -5 -28 -5 -75 -1 -105 1 -14 0 -38 -5 -54 -4 -16 -3 -36 1 -45
5 -9 6 -35 1 -59 -4 -23 -4 -45 1 -48 4 -2 4 -16 -1 -29 -6 -15 -6 -27 1 -30
5 -4 6 -12 2 -18 -10 -15 -10 -38 -2 -57 4 -8 4 -34 -1 -58 -4 -23 -4 -45 1
-48 4 -2 4 -16 -1 -29 -6 -16 -6 -27 1 -31 6 -3 6 -11 1 -17 -4 -7 -7 -23 -5
-37 4 -29 6 -161 3 -172 -6 -21 -5 -34 2 -45 5 -6 5 -14 -2 -18 -6 -4 -7 -12
-1 -24 6 -10 6 -33 2 -53 -5 -20 -5 -42 -1 -49 5 -7 5 -22 0 -34 -5 -12 -4
-28 0 -35 5 -8 6 -18 4 -22 -7 -11 -2 -197 6 -218 1 -3 1 -45 1 -93 -2 -85 21
-187 42 -187 4 0 5 -4 2 -10 -3 -5 -1 -10 5 -10 6 0 8 -5 5 -10 -3 -5 -1 -10
4 -10 6 0 10 -3 9 -7 -2 -14 32 -83 42 -83 6 0 10 -9 10 -20 0 -11 5 -20 10
-20 6 0 10 -7 10 -15 0 -8 5 -15 10 -15 6 0 10 -6 10 -13 0 -7 9 -23 20 -35
11 -12 20 -24 20 -26 0 -6 26 -39 52 -68 10 -10 15 -18 11 -18 -5 0 11 -18 35
-40 23 -22 39 -40 36 -40 -4 0 27 -33 70 -73 106 -101 129 -121 167 -148 19
-12 36 -26 39 -29 17 -19 98 -68 104 -63 3 3 6 1 6 -5 0 -7 16 -20 35 -29 19
-9 35 -21 35 -25 0 -5 5 -6 10 -3 6 3 13 -1 16 -9 3 -9 10 -14 14 -11 4 3 19
-4 33 -16 15 -11 29 -20 32 -20 10 1 40 -12 54 -23 7 -5 18 -11 25 -12 7 -1
38 -13 69 -28 32 -14 62 -26 67 -26 6 0 18 -4 28 -9 17 -10 125 -45 129 -43 2
1 21 -5 43 -13 22 -8 42 -14 45 -15 3 0 6 0 8 -1 1 0 11 -2 22 -4 11 -2 36 -7
55 -11 19 -4 45 -7 58 -8 12 0 22 -4 22 -8 0 -4 8 -7 18 -6 30 1 120 -9 128
-15 38 -22 511 -22 547 0 7 4 29 7 49 6 21 -1 38 2 38 6 0 4 12 7 28 6 15 -1
31 1 37 3 5 3 23 7 40 9 36 4 70 11 70 14 0 1 9 3 20 5 25 4 59 12 63 14 1 2
7 4 12 5 6 1 13 4 18 5 4 2 12 4 17 5 35 6 95 27 95 33 0 4 14 8 31 9 18 1 42
9 55 18 13 8 24 13 24 11 0 -3 12 1 27 9 15 8 30 12 35 9 4 -3 8 -1 8 5 0 8
19 18 50 26 3 1 19 8 35 15 17 7 33 13 38 12 4 -1 7 2 7 7 0 8 31 26 127 75
13 6 23 14 23 19 0 4 7 7 15 7 8 0 15 5 15 10 0 6 5 10 11 10 17 0 80 46 72
53 -3 4 0 7 7 7 7 0 37 18 65 39 67 50 265 245 265 260 0 6 9 16 20 23 11 7
20 17 20 23 0 6 9 17 20 25 11 8 20 19 20 25 0 6 13 26 30 45 16 19 29 40 30
46 0 6 7 17 15 24 8 7 12 16 9 21 -3 5 -1 9 5 9 6 0 13 11 17 25 3 14 10 25
14 25 5 0 14 16 21 35 7 19 17 35 22 35 4 0 5 5 2 10 -3 6 -1 10 5 10 7 0 10
6 7 14 -3 8 0 19 7 25 8 7 17 26 21 44 4 17 9 39 11 47 5 18 5 48 2 123 -2 33
0 61 4 63 4 3 5 11 2 18 -9 23 -11 109 -3 139 4 15 5 27 1 27 -6 0 -7 126 -2
140 1 3 2 9 1 14 -1 5 -4 44 -6 85 -2 42 -4 76 -4 76 -1 0 0 2026 2 2203 0 28
4 52 9 52 5 0 5 7 0 16 -7 12 -4 23 7 36 9 10 16 22 17 26 0 4 7 21 14 37 7
17 13 33 12 38 -1 4 2 7 8 7 5 0 10 9 10 20 0 11 5 20 10 20 6 0 10 6 10 12 0
12 50 118 60 128 3 3 7 14 8 25 2 11 8 22 13 23 5 2 9 9 9 15 0 7 9 30 21 51
17 31 18 40 7 47 -7 5 -16 9 -20 9 -5 0 -8 9 -8 21 0 11 5 17 10 14 6 -4 22
-9 37 -11 15 -3 32 -9 38 -14 8 -6 20 0 36 18 38 41 79 99 79 111 0 6 5 11 10
11 6 0 10 7 10 15 0 8 5 15 10 15 6 0 9 3 8 8 -3 13 21 62 31 62 5 0 8 9 6 20
-2 11 1 20 6 20 6 0 9 6 7 12 -3 7 2 19 9 27 8 7 12 20 9 27 -3 8 -2 14 3 14
5 0 11 11 13 25 5 23 2 27 -18 24 -4 0 -10 3 -13 9 -9 14 -160 85 -188 88 -20
2 -28 -4 -36 -27 -6 -16 -15 -29 -18 -29 -4 0 -18 -20 -30 -45 -12 -25 -27
-45 -32 -45 -5 0 -6 -7 -3 -16 4 -11 0 -15 -16 -12 -20 3 -36 38 -18 38 8 0
23 33 25 52 0 4 6 13 13 20 6 6 12 19 12 28 0 9 5 21 11 27 18 18 3 40 -30 48
-17 4 -31 10 -31 14 0 4 -15 12 -32 18 -18 6 -57 20 -86 31 -29 11 -56 20 -60
20 -16 0 -32 -23 -42 -59 -6 -22 -15 -39 -21 -39 -6 0 -7 -4 -4 -10 3 -5 1
-10 -6 -10 -7 0 -9 -3 -6 -6 9 -10 -13 -46 -25 -42 -14 5 -20 38 -11 58 3 8 8
21 10 28 1 6 5 18 7 25 1 6 8 23 13 37 14 33 6 49 -26 56 -14 4 -31 11 -37 15
-6 5 -20 10 -32 12 -12 2 -24 6 -28 9 -3 4 -12 4 -20 1 -8 -3 -14 0 -14 7 0 7
-8 10 -20 7 -10 -3 -21 0 -23 6 -3 9 -11 8 -31 -1 -15 -6 -24 -17 -21 -22 3
-6 3 -10 -2 -10 -9 0 -45 -58 -49 -78 -1 -8 -10 -22 -18 -31 -9 -10 -16 -27
-16 -39 0 -12 -4 -22 -9 -22 -5 0 -12 -11 -15 -25 -3 -13 -11 -37 -17 -52 -6
-15 -10 -29 -10 -30 0 -2 -6 -21 -14 -43 -8 -22 -12 -40 -8 -40 3 0 0 -7 -7
-15 -10 -12 -10 -19 2 -33 18 -21 17 -30 -6 -65 -18 -26 -75 -142 -76 -152 0
-3 -22 -50 -50 -105 -27 -55 -47 -100 -44 -100 3 0 -4 -9 -15 -21 -16 -17 -23
-19 -40 -10 -12 7 -21 9 -21 5 0 -3 -7 -1 -15 6 -8 6 -19 9 -24 6 -5 -4 -12
-2 -16 4 -3 5 -19 10 -34 10 -37 0 -122 26 -131 40 -4 6 1 45 10 85 12 52 14
77 7 84 -8 8 -7 11 1 11 7 0 12 8 12 18 0 10 3 22 6 25 4 4 8 23 10 44 1 21 5
49 9 63 23 95 18 116 -22 111 -20 -3 -15 27 5 38 11 6 24 6 35 -1 19 -10 68
-3 65 10 -1 4 3 17 10 30 7 12 10 22 6 22 -3 0 -2 6 4 13 11 13 23 56 25 90 1
9 5 17 10 17 5 0 7 9 4 20 -3 11 -1 20 5 20 6 0 8 6 5 13 -2 6 0 23 6 37 5 14
11 50 12 80 2 30 4 60 5 65 9 40 -1 53 -47 64 -27 7 -68 18 -93 24 -25 6 -51
11 -57 11 -7 -1 -20 -2 -29 -3 -14 -1 -41 -56 -36 -73 1 -5 -2 -8 -7 -8 -5 0
-12 -11 -15 -25 -3 -13 -11 -37 -18 -52 -6 -15 -12 -32 -12 -37 -1 -5 -6 -11
-13 -13 -15 -5 -37 33 -24 42 6 3 10 13 10 23 0 34 8 83 15 89 9 9 8 73 -1 72
-5 -1 -10 0 -13 1 -16 7 -157 22 -220 24 -52 1 -55 0 -52 -21 2 -13 -1 -23 -5
-23 -5 0 -9 -8 -10 -17 -1 -10 -4 -40 -7 -68 -4 -27 -7 -56 -8 -62 -1 -7 -10
-13 -21 -13 -14 0 -18 5 -14 20 3 11 2 20 -2 20 -4 0 -7 39 -6 86 0 47 -2 87
-5 89 -3 2 -38 5 -78 7 -39 2 -72 7 -72 11 0 4 -8 4 -17 -1 -11 -7 -23 -6 -34
1 -23 14 -57 -14 -55 -46 1 -12 -3 -28 -8 -36 -6 -8 -12 -26 -13 -40 -1 -14
-5 -39 -9 -56 -4 -16 -8 -42 -8 -57 -1 -16 -5 -28 -9 -28 -5 0 -5 -6 0 -12 10
-18 3 -71 -11 -80 -6 -4 -6 -8 -1 -8 6 0 9 -23 7 -55 -2 -33 0 -55 6 -55 6 0
18 -8 27 -17 16 -16 16 -17 0 -30 -11 -7 -19 -28 -21 -50 -2 -21 -3 -38 -4
-38 -2 0 -9 -32 -14 -70 -5 -32 -12 -63 -23 -110 -4 -16 -8 -41 -9 -55 -1 -14
-5 -38 -9 -55 -7 -27 -12 -56 -14 -79 -1 -4 -8 -6 -16 -2 -8 3 -15 1 -15 -4 0
-5 -7 -7 -17 -3 -18 7 -81 9 -87 2 -2 -2 -32 -2 -65 -1 -60 4 -60 4 -67 38 -3
19 -10 34 -14 34 -5 0 -6 9 -3 20 3 11 2 28 -2 37 -9 20 -13 45 -16 86 -1 15
-5 27 -10 27 -4 0 -6 8 -4 18 1 9 0 22 -3 27 -4 6 -7 19 -8 30 -1 11 -6 34
-12 50 -5 17 -8 40 -7 53 1 12 -2 22 -7 22 -5 0 -6 5 -3 10 3 6 3 10 -2 10 -4
0 -9 14 -10 30 -2 25 7 37 20 28 2 -2 10 2 18 9 23 18 16 218 -10 301 -5 17
-7 32 -4 32 3 0 0 7 -7 15 -6 8 -10 18 -7 22 8 13 -27 78 -43 78 -8 0 -20 3
-25 7 -6 4 -17 3 -25 -2 -8 -5 -21 -5 -29 -1 -9 4 -40 2 -68 -5z"/>
</g>
</svg>
